<?xml version="1.0" standalone="no"?>
<!DOCTYPE svg PUBLIC "-//W3C//DTD SVG 20010904//EN"
 "http://www.w3.org/TR/2001/REC-SVG-20010904/DTD/svg10.dtd">
<svg version="1.0" xmlns="http://www.w3.org/2000/svg"
 width="1024.000000pt" height="1024.000000pt" viewBox="0 0 1024.000000 1024.000000"
 preserveAspectRatio="xMidYMid meet">

<g transform="translate(0.000000,1024.000000) scale(0.100000,-0.100000)"
fill="#000000" stroke="none">
<path d="M0 5120 l0 -5120 5120 0 5120 0 0 5120 0 5120 -5120 0 -5120 0 0
-5120z m3473 3383 c130 -93 241 -315 293 -588 28 -139 25 -435 -4 -583 -72
-359 -231 -639 -555 -978 l-115 -120 54 -309 c30 -171 54 -312 54 -315 0 -3
48 -6 108 -6 224 -3 424 -88 590 -251 172 -169 262 -385 262 -625 -1 -241 -89
-447 -270 -628 -103 -103 -174 -150 -303 -200 l-82 -32 42 -231 c71 -394 86
-515 80 -657 -6 -147 -27 -220 -92 -314 -75 -110 -214 -200 -382 -248 -102
-29 -276 -31 -373 -4 -151 41 -309 148 -383 259 -52 77 -78 156 -84 252 -12
181 70 336 215 407 63 31 73 33 177 33 97 0 116 -3 160 -25 116 -57 179 -164
178 -305 -1 -191 -124 -332 -322 -366 l-64 -12 53 -33 c117 -74 283 -102 410
-70 185 47 295 164 331 350 14 73 11 297 -6 416 -26 186 -78 495 -84 501 -3 4
-44 1 -91 -7 -305 -47 -597 24 -885 217 -488 326 -687 877 -509 1407 57 171
181 381 336 567 88 108 350 374 542 552 l119 110 -31 189 c-86 516 -63 866 79
1229 82 210 235 391 374 443 53 20 130 9 178 -25z m3087 -141 c35 -36 43 -96
38 -310 l-3 -152 153 0 152 0 0 205 c0 221 5 247 51 271 44 22 85 17 121 -15
l33 -29 3 -216 3 -216 150 0 149 0 0 205 c0 159 3 212 14 234 26 49 99 66 145
35 44 -31 51 -69 51 -279 l0 -195 158 0 c86 0 174 -5 194 -10 57 -16 119 -69
150 -129 27 -52 28 -57 28 -222 l0 -169 196 0 c156 0 203 -3 229 -15 61 -30
74 -107 26 -156 l-29 -29 -211 0 -211 0 0 -160 0 -160 211 0 211 0 29 -29 c39
-40 41 -97 3 -135 l-27 -26 -213 0 -214 0 0 -165 0 -165 209 0 209 0 31 -26
c43 -36 44 -93 2 -135 l-29 -29 -211 0 -211 0 0 -157 c0 -145 -2 -162 -24
-208 -26 -56 -70 -98 -131 -126 -34 -16 -67 -19 -212 -19 l-173 0 0 -215 c0
-235 -5 -260 -55 -283 -57 -26 -111 -8 -140 48 -12 23 -15 72 -15 240 l0 210
-150 0 -150 0 0 -222 c0 -196 -3 -226 -18 -244 -42 -53 -109 -59 -153 -15 -32
33 -31 14 -31 349 l0 132 -154 0 -154 0 0 -223 c0 -244 -2 -253 -59 -277 -42
-17 -95 -5 -121 27 -19 24 -20 39 -20 249 l0 224 -163 0 c-191 0 -235 11 -297
72 -71 68 -80 100 -80 281 l0 157 -216 0 -216 0 -29 29 c-37 38 -39 88 -5 128
l24 28 219 5 218 5 0 160 0 160 -217 3 -217 2 -25 31 c-36 43 -35 92 3 130
l29 29 216 0 216 0 0 160 0 160 -216 0 -216 0 -29 29 c-40 40 -40 89 0 133
l29 33 216 3 216 3 0 168 c0 160 1 169 26 219 14 29 42 65 62 82 61 50 107 60
289 60 l163 0 0 216 0 216 29 29 c41 40 101 41 141 1z m-3982 -1752 l-73 -79
-437 -1 -438 0 0 80 0 80 511 0 511 0 -74 -80z m2572 0 l0 -80 -770 0 c-423 0
-770 2 -770 5 0 2 23 38 51 80 l51 75 719 0 719 0 0 -80z m521 -928 c16 -40
29 -75 29 -78 0 -2 -418 -4 -929 -4 l-928 0 -94 49 c-52 27 -128 59 -169 71
-41 12 -84 26 -95 31 -11 4 470 7 1068 6 l1088 -2 30 -73z m-3886 -4 l-35 -73
-60 -3 -60 -3 0 76 0 75 95 0 94 0 -34 -72z m6333 -701 l22 -24 -2 -909 -3
-909 -29 -60 c-57 -116 -194 -225 -331 -261 -67 -18 -180 -18 -243 1 -71 22
-131 70 -165 135 -26 50 -28 62 -25 130 6 94 37 159 113 233 103 103 264 164
397 154 37 -3 76 -11 87 -17 l21 -11 0 756 0 756 25 24 c33 34 102 35 133 2z
m-2034 -28 l26 -21 -2 -896 -3 -897 -29 -60 c-37 -75 -141 -180 -217 -218
-256 -128 -528 -29 -546 197 -7 81 15 155 66 222 129 171 372 254 547 187 12
-4 14 67 14 517 l0 522 -27 -7 c-16 -3 -226 -68 -468 -144 l-440 -138 -5 -749
-5 -749 -28 -57 c-80 -164 -269 -281 -452 -281 -38 0 -89 5 -112 11 -63 19
-134 71 -168 126 -28 46 -30 57 -30 140 0 115 22 165 114 256 135 134 317 190
459 141 l52 -18 0 798 c0 652 2 800 13 811 8 7 57 24 111 37 53 13 95 25 93
28 -3 2 -41 -5 -85 -16 -71 -19 -111 -21 -351 -21 l-271 0 0 75 0 75 548 2
c301 2 550 0 553 -5 3 -4 131 28 285 72 153 43 291 79 305 80 15 0 38 -8 53
-20z m-4395 -176 c7 -38 14 -76 17 -85 4 -15 -1 -18 -35 -18 l-41 0 0 85 c0
83 1 85 24 85 22 0 25 -6 35 -67z m6919 -25 l3 -78 -156 0 -155 0 0 78 0 78
153 -1 152 0 3 -77z m-808 -3 l0 -75 -765 0 -765 0 0 75 0 75 765 0 765 0 0
-75z m-788 -414 c48 -30 140 -139 205 -240 117 -182 164 -370 132 -523 -26
-120 -70 -178 -122 -159 -34 13 -40 39 -22 91 22 61 19 174 -5 246 -25 72 -79
153 -134 200 l-41 35 -5 -878 -5 -878 -33 -67 c-22 -45 -52 -85 -98 -127 -106
-99 -210 -141 -350 -141 -225 0 -364 143 -325 333 45 210 343 384 553 323 31
-9 58 -16 60 -16 1 0 2 393 0 872 -1 480 0 883 3 896 17 69 106 84 187 33z
m1596 -513 l3 -78 -156 0 -155 0 0 80 0 81 153 -3 152 -3 3 -77z m-6242 30
c36 -23 103 -57 148 -75 l81 -33 -482 0 -483 0 0 75 0 75 334 0 335 0 67 -42z
m2294 -33 l0 -75 -480 0 c-455 0 -480 1 -480 18 0 11 12 22 34 30 18 7 64 32
102 57 l69 45 378 0 377 0 0 -75z m1120 0 l0 -75 -310 0 -310 0 0 75 0 75 310
0 310 0 0 -75z m880 0 l0 -75 -195 0 -195 0 0 75 0 75 195 0 195 0 0 -75z
m1140 0 l0 -75 -154 0 -153 0 -7 53 c-4 28 -10 62 -13 75 l-5 22 166 0 166 0
0 -75z m810 -925 l0 -80 -246 0 -246 0 46 51 c26 29 54 65 63 80 l17 29 183 0
183 0 0 -80z m-6465 23 c3 -27 8 -62 11 -80 l5 -31 -263 1 -263 2 -3 78 -3 77
255 0 255 0 6 -47z m1995 39 c0 -4 -5 -13 -11 -19 -5 -5 -20 -36 -33 -67 l-23
-57 -152 0 c-83 0 -151 2 -152 6 -1 3 2 37 6 75 l7 70 179 0 c98 0 179 -4 179
-8z m1100 -145 c0 -1 -18 -2 -40 -2 l-40 -1 0 80 0 80 40 -78 c22 -43 40 -79
40 -79z m1420 73 l0 -80 -285 0 c-157 0 -285 2 -285 5 0 3 26 39 57 80 l56 75
229 0 228 0 0 -80z m562 8 c21 -40 36 -73 35 -74 -1 -1 -20 -4 -42 -6 l-40 -3
-3 78 c-2 42 1 77 5 77 4 0 25 -33 45 -72z"/>
<path d="M3391 8089 c-85 -34 -184 -146 -256 -289 -123 -247 -168 -487 -145
-783 6 -83 15 -170 18 -191 l7 -39 99 104 c106 111 193 216 256 309 50 74 140
254 173 347 83 230 73 480 -22 536 -32 19 -92 21 -130 6z"/>
<path d="M2850 6028 c-392 -340 -590 -593 -683 -870 -38 -112 -49 -189 -48
-318 1 -299 145 -549 418 -727 106 -69 190 -107 311 -141 83 -22 117 -26 237
-27 79 0 164 6 196 13 l56 13 -99 587 c-54 322 -101 588 -103 590 -9 9 -108
-32 -162 -67 -298 -193 -307 -571 -18 -777 21 -15 27 -25 22 -38 -6 -16 -14
-17 -49 -12 -107 17 -262 130 -335 244 -77 120 -113 285 -94 427 37 262 197
472 461 602 52 26 97 48 99 50 6 4 -80 536 -88 545 -3 3 -58 -39 -121 -94z"/>
<path d="M3274 5153 c3 -16 44 -248 91 -518 47 -269 90 -518 96 -552 11 -61
11 -62 37 -52 71 27 174 99 239 169 42 44 108 176 128 255 33 129 14 292 -48
410 -46 88 -163 201 -257 247 -73 36 -197 68 -260 68 -29 0 -31 -2 -26 -27z"/>
<path d="M6067 7682 c-16 -17 -17 -95 -17 -918 0 -494 4 -904 8 -910 22 -33
46 -34 942 -34 896 0 920 1 942 34 4 6 8 417 8 913 l0 902 -22 15 c-20 14
-125 16 -934 16 -870 0 -912 -1 -927 -18z m836 -335 c16 -11 417 -1083 417
-1114 0 -30 -31 -43 -108 -43 -42 0 -83 4 -90 8 -7 5 -32 61 -56 126 -25 65
-47 121 -51 124 -4 4 -98 8 -210 10 -234 4 -221 8 -256 -95 -12 -38 -32 -92
-45 -120 l-23 -53 -81 0 c-88 0 -120 10 -120 39 0 10 34 110 76 222 42 112
132 355 201 539 68 184 132 343 140 353 13 14 33 17 103 17 53 0 93 -5 103
-13z m745 1 c17 -17 17 -1129 0 -1146 -15 -15 -152 -16 -179 -2 -18 10 -19 27
-19 573 0 425 3 566 12 575 7 7 43 12 93 12 50 0 86 -5 93 -12z"/>
<path d="M6790 7040 c0 -8 -31 -98 -68 -200 l-68 -185 139 -3 c77 -1 142 0
145 2 5 6 -127 377 -139 391 -6 5 -9 3 -9 -5z"/>
<path d="M5408 4803 c7 -3 16 -2 19 1 4 3 -2 6 -13 5 -11 0 -14 -3 -6 -6z"/>
<path d="M5307 4783 c-32 -9 -56 -17 -54 -20 5 -4 129 26 136 33 8 7 -23 2
-82 -13z"/>
<path d="M5157 4743 c-32 -9 -56 -17 -54 -20 5 -4 129 26 136 33 8 7 -23 2
-82 -13z"/>
<path d="M5068 4713 c7 -3 16 -2 19 1 4 3 -2 6 -13 5 -11 0 -14 -3 -6 -6z"/>
</g>
</svg>
